<svg width="960" height="280" viewBox="0 0 960 280" fill="none" xmlns="http://www.w3.org/2000/svg">
  <defs>
    <linearGradient id="bg" x1="28" y1="20" x2="216" y2="228" gradientUnits="userSpaceOnUse">
      <stop stop-color="#0F172A"/>
      <stop offset="1" stop-color="#134E4A"/>
    </linearGradient>
    <linearGradient id="paper" x1="70" y1="72" x2="188" y2="214" gradientUnits="userSpaceOnUse">
      <stop stop-color="#FCFDFE"/>
      <stop offset="1" stop-color="#E6EEF4"/>
    </linearGradient>
    <linearGradient id="accent" x1="102" y1="186" x2="196" y2="110" gradientUnits="userSpaceOnUse">
      <stop stop-color="#14B8A6"/>
      <stop offset="1" stop-color="#34D399"/>
    </linearGradient>
    <filter id="shadow" x="42" y="52" width="170" height="188" filterUnits="userSpaceOnUse" color-interpolation-filters="sRGB">
      <feFlood flood-opacity="0" result="BackgroundImageFix"/>
      <feColorMatrix in="SourceAlpha" type="matrix" values="0 0 0 0 0 0 0 0 0 0 0 0 0 0 0 0 0 0 127 0" result="hardAlpha"/>
      <feOffset dy="10"/>
      <feGaussianBlur stdDeviation="8"/>
      <feComposite in2="hardAlpha" operator="out"/>
      <feColorMatrix type="matrix" values="0 0 0 0 0.0588235 0 0 0 0 0.0901961 0 0 0 0 0.164706 0 0 0 0.18 0"/>
      <feBlend mode="normal" in2="BackgroundImageFix" result="effect1_dropShadow_1_1"/>
      <feBlend mode="normal" in="SourceGraphic" in2="effect1_dropShadow_1_1" result="shape"/>
    </filter>
  </defs>
  <rect x="16" y="16" width="224" height="224" rx="54" fill="url(#bg)"/>
  <circle cx="194" cy="64" r="26" fill="#34D399" fill-opacity="0.14"/>
  <circle cx="72" cy="198" r="38" fill="#F8FAFC" fill-opacity="0.08"/>
  <g filter="url(#shadow)">
    <path d="M86 62H154L202 110V184C202 200.569 188.569 214 172 214H86C69.4315 214 56 200.569 56 184V92C56 75.4315 69.4315 62 86 62Z" fill="url(#paper)"/>
    <path d="M154 62V96C154 110.359 165.641 122 180 122H202L154 62Z" fill="#D5E4EC"/>
  </g>
  <rect x="84" y="116" width="76" height="10" rx="5" fill="#1E293B" fill-opacity="0.14"/>
  <rect x="84" y="140" width="100" height="10" rx="5" fill="#1E293B" fill-opacity="0.14"/>
  <rect x="84" y="164" width="66" height="10" rx="5" fill="#1E293B" fill-opacity="0.14"/>
  <path d="M98 188L132 154L156 178L192 130" stroke="url(#accent)" stroke-width="14" stroke-linecap="round" stroke-linejoin="round"/>
  <path d="M182 130H200V148" stroke="url(#accent)" stroke-width="14" stroke-linecap="round" stroke-linejoin="round"/>
  <text x="288" y="140" fill="#0F172A" font-family="DejaVu Sans, Arial, sans-serif" font-size="92" font-style="italic" font-weight="800" letter-spacing="1">Extratos</text>
  <text x="292" y="188" fill="#5B6472" font-family="DejaVu Sans, Arial, sans-serif" font-size="26" font-weight="600" letter-spacing="1.5">IMPORTAR. BUSCAR. ANALISAR.</text>
</svg>
